<?xml version="1.0" encoding="UTF-8" standalone="no"?>
<!-- Created with Inkscape (http://www.inkscape.org/) -->

<svg
   xmlns:dc="http://purl.org/dc/elements/1.1/"
   xmlns:cc="http://creativecommons.org/ns#"
   xmlns:rdf="http://www.w3.org/1999/02/22-rdf-syntax-ns#"
   xmlns:svg="http://www.w3.org/2000/svg"
   xmlns="http://www.w3.org/2000/svg"
   xmlns:sodipodi="http://sodipodi.sourceforge.net/DTD/sodipodi-0.dtd"
   xmlns:inkscape="http://www.inkscape.org/namespaces/inkscape"
   id="svg3068"
   version="1.1"
   inkscape:version="0.48.4 r9939"
   width="425"
   height="425"
   sodipodi:docname="panthera_cute2.svg">
   
  <metadata
     id="metadata3074">
    <rdf:RDF>
      <cc:Work
         rdf:about="">
        <dc:format>image/svg+xml</dc:format>
        <dc:type
           rdf:resource="http://purl.org/dc/dcmitype/StillImage" />
        <dc:title></dc:title>
      </cc:Work>
    </rdf:RDF>
  </metadata>
  <defs
     id="defs3072" />
  <sodipodi:namedview
     pagecolor="#ffffff"
     bordercolor="#666666"
     borderopacity="1"
     objecttolerance="10"
     gridtolerance="10"
     guidetolerance="10"
     inkscape:pageopacity="0"
     inkscape:pageshadow="2"
     inkscape:window-width="1366"
     inkscape:window-height="713"
     id="namedview3070"
     showgrid="false"
     inkscape:zoom="0.87514863"
     inkscape:cx="218.44925"
     inkscape:cy="244.81939"
     inkscape:window-x="0"
     inkscape:window-y="26"
     inkscape:window-maximized="1"
     inkscape:current-layer="svg3068" />
  <path
     sodipodi:type="arc"
     style="fill:#ffffff;fill-opacity:1;stroke:#37abc8;stroke-opacity:1;stroke-width:13.07104666000000037;stroke-miterlimit:4;stroke-dasharray:none"
     id="path3080-7"
     sodipodi:cx="244.01141"
     sodipodi:cy="259.76712"
     sodipodi:rx="220.57985"
     sodipodi:ry="200.78423"
     d="m 464.59126,259.76712 a 220.57985,200.78423 0 1 1 -441.159696,0 220.57985,200.78423 0 1 1 441.159696,0 z"
     transform="matrix(0.75387995,0,0,0.75387995,34.442641,20.826472)" />
  <path
     sodipodi:type="arc"
     style="fill:#37abc8;stroke:none;stroke-width:21.83029327999999936;stroke-miterlimit:4;stroke-opacity:1;stroke-dasharray:none;fill-opacity:1"
     id="path3080"
     sodipodi:cx="244.01141"
     sodipodi:cy="259.76712"
     sodipodi:rx="220.57985"
     sodipodi:ry="200.78423"
     d="m 464.59126,259.76712 a 220.57985,200.78423 0 1 1 -441.159696,0 220.57985,200.78423 0 1 1 441.159696,0 z"
     transform="matrix(0.68546949,0,0,0.68546949,51.048062,37.610053)" />
  <path
     style="fill:#ffffff;fill-opacity:1;fill-rule:nonzero;stroke:#37abc8;stroke-width:5.41349792;stroke-linecap:round;stroke-linejoin:round;stroke-miterlimit:4;stroke-opacity:1;stroke-dasharray:none"
     d="m 256.16724,323.21016 c -3.03022,-1.07435 -6.86788,-3.72096 -6.86788,-4.73637 0,-1.62046 12.40333,-20.26655 16.74075,-25.1666 3.38283,-3.82162 3.85246,-6.27735 1.20047,-6.27735 -2.56384,0 -6.57822,3.71084 -10.79659,9.98025 -5.72692,8.51146 -13.4912,17.95111 -14.53323,17.66919 -2.07449,-0.56125 -12.81102,-8.41964 -12.81102,-9.37677 0,-1.93466 16.407,-15.56574 22.34293,-18.5627 3.09187,-1.56104 8.3605,-6.41378 8.3605,-7.70056 0,-0.51253 -0.85621,-1.322 -1.90268,-1.79881 -2.28019,-1.03893 -6.80124,0.98006 -11.52875,5.14844 -9.37262,8.2641 -22.74041,18.34033 -24.3541,18.35737 -1.00662,0.0107 -3.73356,-1.04551 -6.05989,-2.34698 -6.55738,-3.66855 -17.90303,-6.20634 -38.16504,-8.53676 -12.85841,-1.4789 -25.70075,-4.54755 -28.68346,-6.85385 -1.11098,-0.85904 -3.54049,-2.32592 -5.39891,-3.25973 -7.84711,-3.94299 -19.86083,-20.44975 -22.17263,-30.46502 -1.09371,-4.73821 0.12376,-25.90901 2.07212,-36.03243 1.57578,-8.18761 8.31846,-32.38106 10.56715,-37.91611 2.57207,-6.33101 5.39918,-16.55275 8.43864,-30.51086 2.62034,-12.03341 4.3229,-17.62331 6.33691,-20.80561 0.95263,-1.50523 1.86428,-1.81456 5.29955,-1.79821 6.07438,0.0289 10.50949,1.25897 18.95773,5.25782 l 7.53687,3.56746 4.33084,-3.26981 c 3.61745,-2.73121 5.2723,-3.40029 10.04623,-4.06185 11.36806,-1.57537 30.31897,2.40995 46.95115,9.87369 18.46308,8.28536 31.51712,10.62315 40.46966,7.24754 2.50896,-0.94602 6.83016,-3.18619 9.60268,-4.97816 3.49778,-2.26072 5.29881,-3.00025 5.8833,-2.41575 2.99313,2.99312 -2.02873,22.92296 -9.38322,37.2384 -4.11022,8.00049 -4.76546,9.88197 -4.71483,13.53824 0.11121,8.03223 4.88479,33.76255 7.86814,42.41054 3.43626,9.96085 12.2331,28.36547 15.29982,32.01006 1.96177,2.33143 2.15827,3.08898 1.76935,6.821 -0.44401,4.26075 -5.25876,16.34908 -9.17012,23.02331 l -2.14649,3.6627 -2.35218,-5.18397 c -1.29369,-2.85119 -3.99408,-7.27464 -6.00087,-9.82989 -2.00677,-2.55525 -3.2975,-4.64591 -2.86828,-4.64591 0.42922,0 2.67144,1.27258 4.98271,2.82795 2.31128,1.55537 4.51582,2.82794 4.899,2.82794 0.38318,0 2.17876,-2.18244 3.99019,-4.84989 1.81142,-2.66744 4.1852,-5.43415 5.27506,-6.14827 1.08987,-0.7141 1.81175,-1.57315 1.60418,-1.90901 -0.20756,-0.33584 -3.96966,-0.7836 -8.36022,-0.99502 -13.37002,-0.64382 -17.68663,-3.84646 -25.29053,-18.76397 -2.28123,-4.47539 -6.59941,-11.5912 -9.59593,-15.81292 -7.06747,-9.95716 -9.68905,-15.02798 -9.68905,-18.7412 0,-8.1868 -3.15759,-9.70863 -21.14174,-10.18941 -7.40624,-0.198 -15.58529,-0.0952 -18.17565,0.22844 l -4.70975,0.58845 3.22792,1.64105 c 1.77536,0.90258 6.5225,5.02245 10.54919,9.15526 4.04805,4.15472 8.27239,7.75292 9.44866,8.04815 1.17007,0.29366 4.59013,-0.0278 7.60013,-0.7144 5.10351,-1.16412 5.69405,-1.15044 8.75309,0.20273 3.89043,1.72091 8.00739,6.46881 15.13703,17.45678 5.45163,8.40187 8.40073,15.20564 11.54574,26.63675 1.48511,5.39788 2.73324,7.88923 6.29349,12.5622 7.09921,9.31799 7.80821,15.3827 2.99963,25.65841 -4.79445,10.24548 -13.08117,18.56062 -20.81756,20.88893 -4.27024,1.28515 -5.37347,1.30104 -8.69021,0.1251 l 0,0 z m -60.07117,-48.26617 c 20.51734,-2.71583 30.9922,-3.78042 44.31546,-4.50391 11.83556,-0.6427 14.54373,-1.42099 14.54373,-4.17965 l 0,-2.06043 -15.9577,0.42779 c -16.02146,0.4295 -34.80788,2.73216 -58.17491,7.13052 -7.40671,1.39415 -9.08983,1.96903 -9.08983,3.10468 0,3.17217 0.98557,3.17545 24.36325,0.081 l 0,0 z M 157.20427,161.5373 c 2.77142,-10.29849 5.56241,-16.50818 9.78388,-21.76823 4.89014,-6.09324 4.27718,-8.14118 -3.09133,-10.32818 -4.54098,-1.34778 -7.70273,-0.0551 -9.64714,3.94438 -1.1648,2.39586 -1.49854,5.67056 -1.76274,17.29629 -0.17925,7.88748 -0.0709,15.70014 0.24075,17.36147 0.51428,2.7413 0.66515,2.8859 1.63181,1.56391 0.58583,-0.80116 1.86598,-4.43251 2.84477,-8.06964 l 0,0 z"
     id="path4096"
     inkscape:connector-curvature="0" />
</svg>
