<?xml version="1.0" encoding="UTF-8" standalone="no"?>
<!-- Created with Inkscape (http://www.inkscape.org/) -->

<svg
   xmlns:dc="http://purl.org/dc/elements/1.1/"
   xmlns:cc="http://creativecommons.org/ns#"
   xmlns:rdf="http://www.w3.org/1999/02/22-rdf-syntax-ns#"
   xmlns:svg="http://www.w3.org/2000/svg"
   xmlns="http://www.w3.org/2000/svg"
   xmlns:sodipodi="http://sodipodi.sourceforge.net/DTD/sodipodi-0.dtd"
   xmlns:inkscape="http://www.inkscape.org/namespaces/inkscape"
   width="744.09448819"
   height="1052.3622047"
   id="svg2"
   version="1.1"
   inkscape:version="0.48.4 r9939"
   sodipodi:docname="pantheralogo.svg">
  <defs
     id="defs4" />
  <sodipodi:namedview
     id="base"
     pagecolor="#ffffff"
     bordercolor="#666666"
     borderopacity="1.0"
     inkscape:pageopacity="0.0"
     inkscape:pageshadow="2"
     inkscape:zoom="0.70710678"
     inkscape:cx="-235.59801"
     inkscape:cy="686.07124"
     inkscape:document-units="px"
     inkscape:current-layer="layer1"
     showgrid="false"
     inkscape:window-width="1861"
     inkscape:window-height="1056"
     inkscape:window-x="59"
     inkscape:window-y="24"
     inkscape:window-maximized="1"
     showguides="true"
     inkscape:guide-bbox="true" />
  <metadata
     id="metadata7">
    <rdf:RDF>
      <cc:Work
         rdf:about="">
        <dc:format>image/svg+xml</dc:format>
        <dc:type
           rdf:resource="http://purl.org/dc/dcmitype/StillImage" />
        <dc:title />
      </cc:Work>
    </rdf:RDF>
  </metadata>
  <g
     inkscape:label="Layer 1"
     inkscape:groupmode="layer"
     id="layer1">
    <path
       style="fill:#ffffff;fill-opacity:1;stroke:none"
       d="m 110.18882,41.099297 c -0.44435,0.02866 -0.90151,0.219894 -1.375,0.65625 -0.56481,0.520517 0.31666,1.01715 0.8125,2.15625 1.11536,2.56238 1.39881,4.0179 1.0625,5.90625 -0.35102,1.97096 -0.92205,3.0501 -2.21875,4.3125 -2.21305,2.1545 -3.48413,2.57922 -10.593753,3.5 -10.01404,1.29695 -17.31205,2.64445 -29.625,5.4375 -9.99427,2.267073 -17.96543,4.453167 -28.625,7.8125 0.32374,-0.0055 0.64371,-0.03125 0.96875,-0.03125 31.20409,0 56.5,25.29591 56.5,56.500003 0,1.29288 -0.03953,2.57254 -0.125,3.84375 l 2.59375,2.25 1.562503,-2.25 c 6.87926,-9.80973 10.83671,-15.20805 23.0625,-17.53125 6.48815,-0.81877 22.48273,3.80643 28.71875,8.03125 5.14169,3.32967 6.46969,4.02222 8.8125,4.5 2.9664,0.60495 4.67755,0.0386 9.59375,-3.21875 1.1235,0.22005 2.42855,0.11692 3.75,-0.375 2.10141,-0.78226 3.58684,-2.33543 3.9375,-3.875 2.35963,-1.02855 4.06378,-1.90263 5.46875,-2.84375 0.007,-0.0601 0.0247,-0.20405 0.0312,-0.25 0,0 -0.10783,-1.58079 -0.4375,-2.3125 -0.26156,-0.58054 -0.80564,-1.02089 -1.3125,-1.40625 -1.4802,-1.12538 -5.53125,-2.78125 -5.53125,-2.78125 0,0 4.41748,-0.26179 6.25,0.5 1.43407,0.59616 4.21875,3.3125 4.21875,3.3125 0.0218,0.008 0.041,0.0233 0.0625,0.0312 0.55913,-0.8453 0.6735,-1.70794 0.5,-2.84375 -0.397,-2.59901 -1.10246,-3.84942 -6.21875,-11.156253 -4.22087,-6.02806 -12.04695,-16.88595 -13.5625,-19.78125 -0.95844,-2.287821 -0.95957,-4.486958 -1.90625,-6.5625 -0.85289,-1.869903 -3.34375,-5.1875 -3.34375,-5.1875 -10.44316,-11.709467 -15.79265,-11.94389 -32.09375,-15.25 -2.20029,-0.446253 -7.93495,-3.55233 -13,-6.03125 -4.11536,-2.014122 -6.01198,-5.186712 -7.9375,-5.0625 z m 3.34375,7.5625 c 0.88531,-0.01765 2.70811,1.979445 3.71875,2.4375 1.1212,0.508156 1.80223,2.414782 2.15625,3.59375 -0.0584,2.168267 -3.65255,1.109878 -3.3125,0.625 0.56351,-1.519894 -4.02684,-4.258216 -2.875,-6.5 0.0819,-0.09455 0.18603,-0.153728 0.3125,-0.15625 z m 40.375,26.9375 c 3.37359,0.06161 3.57894,1.181651 3.6875,1.34375 0.25645,1.93717 -0.7439,3.54598 -2.09375,4.375 -3.13007,0.42004 -7.93081,-4.775276 -7.71875,-5.5 0.12083,-0.250563 -0.43376,0.129758 4.46875,-0.1875 0.62075,-0.04017 1.17431,-0.04005 1.65625,-0.03125 z m -20.9375,8.71875 40.28125,24.906253 c 0,0 0.22737,0.30969 -0.0312,0.84375 -0.30403,0.62793 -0.8125,0.4375 -0.8125,0.4375 l -39.4375,-26.187503 z m -4.46875,7.28125 43.1875,19.468753 c 0,0 0.2496,0.24939 0.0625,0.8125 -0.21994,0.66205 -0.75,0.5625 -0.75,0.5625 l -42.5,-20.843753 z m -3.75,6.375 44.96875,14.937503 c 0,0 0.25343,0.26443 0.125,0.84375 -0.15097,0.68115 -0.6875,0.625 -0.6875,0.625 L 124.75132,97.974297 z"
       id="path3051"
       inkscape:export-filename="/home/zoran/Pictures/Panthera Project/logovlue.png"
       inkscape:export-xdpi="72"
       inkscape:export-ydpi="72"
       inkscape:connector-curvature="0" />
    <flowRoot
       xml:space="preserve"
       id="flowRoot3832"
       style="font-size:40px;font-style:normal;font-weight:normal;line-height:125%;letter-spacing:0px;word-spacing:0px;fill:#000000;fill-opacity:1;stroke:none;font-family:Times New Roman;-inkscape-font-specification:Times New Roman"><flowRegion
         id="flowRegion3834"><rect
           id="rect3836"
           width="161.22035"
           height="42.426407"
           x="280.72141"
           y="415.25897" /></flowRegion><flowPara
         id="flowPara3838">Pas</flowPara></flowRoot>  </g>
</svg>
